<?xml version="1.0" encoding="utf-8" standalone="no"?>
<!DOCTYPE svg PUBLIC "-//W3C//DTD SVG 1.1//EN"
  "http://www.w3.org/Graphics/SVG/1.1/DTD/svg11.dtd">
<svg height="576pt" version="1.1" viewBox="0 0 1152 576" width="1152pt" xmlns="http://www.w3.org/2000/svg" xmlns:xlink="http://www.w3.org/1999/xlink">
 <metadata>
  <rdf:RDF xmlns:cc="http://creativecommons.org/ns#" xmlns:dc="http://purl.org/dc/elements/1.1/" xmlns:rdf="http://www.w3.org/1999/02/22-rdf-syntax-ns#">
   <cc:Work>
    <dc:type rdf:resource="http://purl.org/dc/dcmitype/StillImage"/>
    <dc:date>2021-07-13T17:30:31.856019</dc:date>
    <dc:format>image/svg+xml</dc:format>
    <dc:creator>
     <cc:Agent>
      <dc:title>Matplotlib v3.4.2, https://matplotlib.org/</dc:title>
     </cc:Agent>
    </dc:creator>
   </cc:Work>
  </rdf:RDF>
 </metadata>
 <defs>
  <style type="text/css">*{stroke-linecap:butt;stroke-linejoin:round;}</style>
 </defs>
 <g id="figure_1">
  <g id="patch_1">
   <path d="M 0 576 
L 1152 576 
L 1152 0 
L 0 0 
z
" style="fill:none;"/>
  </g>
  <g id="axes_1">
   <g id="patch_2">
    <path d="M 144 504 
L 1036.8 504 
L 1036.8 69.12 
L 144 69.12 
z
" style="fill:#ffffff;"/>
   </g>
   <g id="matplotlib.axis_1">
    <g id="xtick_1">
     <g id="line2d_1">
      <defs>
       <path d="M 0 0 
L 0 3.5 
" id="md6b2cfe387" style="stroke:#000000;stroke-width:0.8;"/>
      </defs>
      <g>
       <use style="stroke:#000000;stroke-width:0.8;" x="144" xlink:href="#md6b2cfe387" y="504"/>
      </g>
     </g>
     <g id="text_1">
      <!-- 1930 -->
      <g transform="translate(131.275 518.598438)scale(0.1 -0.1)">
       <defs>
        <path d="M 794 531 
L 1825 531 
L 1825 4091 
L 703 3866 
L 703 4441 
L 1819 4666 
L 2450 4666 
L 2450 531 
L 3481 531 
L 3481 0 
L 794 0 
L 794 531 
z
" id="DejaVuSans-31" transform="scale(0.015625)"/>
        <path d="M 703 97 
L 703 672 
Q 941 559 1184 500 
Q 1428 441 1663 441 
Q 2288 441 2617 861 
Q 2947 1281 2994 2138 
Q 2813 1869 2534 1725 
Q 2256 1581 1919 1581 
Q 1219 1581 811 2004 
Q 403 2428 403 3163 
Q 403 3881 828 4315 
Q 1253 4750 1959 4750 
Q 2769 4750 3195 4129 
Q 3622 3509 3622 2328 
Q 3622 1225 3098 567 
Q 2575 -91 1691 -91 
Q 1453 -91 1209 -44 
Q 966 3 703 97 
z
M 1959 2075 
Q 2384 2075 2632 2365 
Q 2881 2656 2881 3163 
Q 2881 3666 2632 3958 
Q 2384 4250 1959 4250 
Q 1534 4250 1286 3958 
Q 1038 3666 1038 3163 
Q 1038 2656 1286 2365 
Q 1534 2075 1959 2075 
z
" id="DejaVuSans-39" transform="scale(0.015625)"/>
        <path d="M 2597 2516 
Q 3050 2419 3304 2112 
Q 3559 1806 3559 1356 
Q 3559 666 3084 287 
Q 2609 -91 1734 -91 
Q 1441 -91 1130 -33 
Q 819 25 488 141 
L 488 750 
Q 750 597 1062 519 
Q 1375 441 1716 441 
Q 2309 441 2620 675 
Q 2931 909 2931 1356 
Q 2931 1769 2642 2001 
Q 2353 2234 1838 2234 
L 1294 2234 
L 1294 2753 
L 1863 2753 
Q 2328 2753 2575 2939 
Q 2822 3125 2822 3475 
Q 2822 3834 2567 4026 
Q 2313 4219 1838 4219 
Q 1578 4219 1281 4162 
Q 984 4106 628 3988 
L 628 4550 
Q 988 4650 1302 4700 
Q 1616 4750 1894 4750 
Q 2613 4750 3031 4423 
Q 3450 4097 3450 3541 
Q 3450 3153 3228 2886 
Q 3006 2619 2597 2516 
z
" id="DejaVuSans-33" transform="scale(0.015625)"/>
        <path d="M 2034 4250 
Q 1547 4250 1301 3770 
Q 1056 3291 1056 2328 
Q 1056 1369 1301 889 
Q 1547 409 2034 409 
Q 2525 409 2770 889 
Q 3016 1369 3016 2328 
Q 3016 3291 2770 3770 
Q 2525 4250 2034 4250 
z
M 2034 4750 
Q 2819 4750 3233 4129 
Q 3647 3509 3647 2328 
Q 3647 1150 3233 529 
Q 2819 -91 2034 -91 
Q 1250 -91 836 529 
Q 422 1150 422 2328 
Q 422 3509 836 4129 
Q 1250 4750 2034 4750 
z
" id="DejaVuSans-30" transform="scale(0.015625)"/>
       </defs>
       <use xlink:href="#DejaVuSans-31"/>
       <use x="63.623047" xlink:href="#DejaVuSans-39"/>
       <use x="127.246094" xlink:href="#DejaVuSans-33"/>
       <use x="190.869141" xlink:href="#DejaVuSans-30"/>
      </g>
     </g>
    </g>
    <g id="xtick_2">
     <g id="line2d_2">
      <g>
       <use style="stroke:#000000;stroke-width:0.8;" x="243.2" xlink:href="#md6b2cfe387" y="504"/>
      </g>
     </g>
     <g id="text_2">
      <!-- 1940 -->
      <g transform="translate(230.475 518.598438)scale(0.1 -0.1)">
       <defs>
        <path d="M 2419 4116 
L 825 1625 
L 2419 1625 
L 2419 4116 
z
M 2253 4666 
L 3047 4666 
L 3047 1625 
L 3713 1625 
L 3713 1100 
L 3047 1100 
L 3047 0 
L 2419 0 
L 2419 1100 
L 313 1100 
L 313 1709 
L 2253 4666 
z
" id="DejaVuSans-34" transform="scale(0.015625)"/>
       </defs>
       <use xlink:href="#DejaVuSans-31"/>
       <use x="63.623047" xlink:href="#DejaVuSans-39"/>
       <use x="127.246094" xlink:href="#DejaVuSans-34"/>
       <use x="190.869141" xlink:href="#DejaVuSans-30"/>
      </g>
     </g>
    </g>
    <g id="xtick_3">
     <g id="line2d_3">
      <g>
       <use style="stroke:#000000;stroke-width:0.8;" x="342.4" xlink:href="#md6b2cfe387" y="504"/>
      </g>
     </g>
     <g id="text_3">
      <!-- 1950 -->
      <g transform="translate(329.675 518.598438)scale(0.1 -0.1)">
       <defs>
        <path d="M 691 4666 
L 3169 4666 
L 3169 4134 
L 1269 4134 
L 1269 2991 
Q 1406 3038 1543 3061 
Q 1681 3084 1819 3084 
Q 2600 3084 3056 2656 
Q 3513 2228 3513 1497 
Q 3513 744 3044 326 
Q 2575 -91 1722 -91 
Q 1428 -91 1123 -41 
Q 819 9 494 109 
L 494 744 
Q 775 591 1075 516 
Q 1375 441 1709 441 
Q 2250 441 2565 725 
Q 2881 1009 2881 1497 
Q 2881 1984 2565 2268 
Q 2250 2553 1709 2553 
Q 1456 2553 1204 2497 
Q 953 2441 691 2322 
L 691 4666 
z
" id="DejaVuSans-35" transform="scale(0.015625)"/>
       </defs>
       <use xlink:href="#DejaVuSans-31"/>
       <use x="63.623047" xlink:href="#DejaVuSans-39"/>
       <use x="127.246094" xlink:href="#DejaVuSans-35"/>
       <use x="190.869141" xlink:href="#DejaVuSans-30"/>
      </g>
     </g>
    </g>
    <g id="xtick_4">
     <g id="line2d_4">
      <g>
       <use style="stroke:#000000;stroke-width:0.8;" x="441.6" xlink:href="#md6b2cfe387" y="504"/>
      </g>
     </g>
     <g id="text_4">
      <!-- 1960 -->
      <g transform="translate(428.875 518.598438)scale(0.1 -0.1)">
       <defs>
        <path d="M 2113 2584 
Q 1688 2584 1439 2293 
Q 1191 2003 1191 1497 
Q 1191 994 1439 701 
Q 1688 409 2113 409 
Q 2538 409 2786 701 
Q 3034 994 3034 1497 
Q 3034 2003 2786 2293 
Q 2538 2584 2113 2584 
z
M 3366 4563 
L 3366 3988 
Q 3128 4100 2886 4159 
Q 2644 4219 2406 4219 
Q 1781 4219 1451 3797 
Q 1122 3375 1075 2522 
Q 1259 2794 1537 2939 
Q 1816 3084 2150 3084 
Q 2853 3084 3261 2657 
Q 3669 2231 3669 1497 
Q 3669 778 3244 343 
Q 2819 -91 2113 -91 
Q 1303 -91 875 529 
Q 447 1150 447 2328 
Q 447 3434 972 4092 
Q 1497 4750 2381 4750 
Q 2619 4750 2861 4703 
Q 3103 4656 3366 4563 
z
" id="DejaVuSans-36" transform="scale(0.015625)"/>
       </defs>
       <use xlink:href="#DejaVuSans-31"/>
       <use x="63.623047" xlink:href="#DejaVuSans-39"/>
       <use x="127.246094" xlink:href="#DejaVuSans-36"/>
       <use x="190.869141" xlink:href="#DejaVuSans-30"/>
      </g>
     </g>
    </g>
    <g id="xtick_5">
     <g id="line2d_5">
      <g>
       <use style="stroke:#000000;stroke-width:0.8;" x="540.8" xlink:href="#md6b2cfe387" y="504"/>
      </g>
     </g>
     <g id="text_5">
      <!-- 1970 -->
      <g transform="translate(528.075 518.598438)scale(0.1 -0.1)">
       <defs>
        <path d="M 525 4666 
L 3525 4666 
L 3525 4397 
L 1831 0 
L 1172 0 
L 2766 4134 
L 525 4134 
L 525 4666 
z
" id="DejaVuSans-37" transform="scale(0.015625)"/>
       </defs>
       <use xlink:href="#DejaVuSans-31"/>
       <use x="63.623047" xlink:href="#DejaVuSans-39"/>
       <use x="127.246094" xlink:href="#DejaVuSans-37"/>
       <use x="190.869141" xlink:href="#DejaVuSans-30"/>
      </g>
     </g>
    </g>
    <g id="xtick_6">
     <g id="line2d_6">
      <g>
       <use style="stroke:#000000;stroke-width:0.8;" x="640" xlink:href="#md6b2cfe387" y="504"/>
      </g>
     </g>
     <g id="text_6">
      <!-- 1980 -->
      <g transform="translate(627.275 518.598438)scale(0.1 -0.1)">
       <defs>
        <path d="M 2034 2216 
Q 1584 2216 1326 1975 
Q 1069 1734 1069 1313 
Q 1069 891 1326 650 
Q 1584 409 2034 409 
Q 2484 409 2743 651 
Q 3003 894 3003 1313 
Q 3003 1734 2745 1975 
Q 2488 2216 2034 2216 
z
M 1403 2484 
Q 997 2584 770 2862 
Q 544 3141 544 3541 
Q 544 4100 942 4425 
Q 1341 4750 2034 4750 
Q 2731 4750 3128 4425 
Q 3525 4100 3525 3541 
Q 3525 3141 3298 2862 
Q 3072 2584 2669 2484 
Q 3125 2378 3379 2068 
Q 3634 1759 3634 1313 
Q 3634 634 3220 271 
Q 2806 -91 2034 -91 
Q 1263 -91 848 271 
Q 434 634 434 1313 
Q 434 1759 690 2068 
Q 947 2378 1403 2484 
z
M 1172 3481 
Q 1172 3119 1398 2916 
Q 1625 2713 2034 2713 
Q 2441 2713 2670 2916 
Q 2900 3119 2900 3481 
Q 2900 3844 2670 4047 
Q 2441 4250 2034 4250 
Q 1625 4250 1398 4047 
Q 1172 3844 1172 3481 
z
" id="DejaVuSans-38" transform="scale(0.015625)"/>
       </defs>
       <use xlink:href="#DejaVuSans-31"/>
       <use x="63.623047" xlink:href="#DejaVuSans-39"/>
       <use x="127.246094" xlink:href="#DejaVuSans-38"/>
       <use x="190.869141" xlink:href="#DejaVuSans-30"/>
      </g>
     </g>
    </g>
    <g id="xtick_7">
     <g id="line2d_7">
      <g>
       <use style="stroke:#000000;stroke-width:0.8;" x="739.2" xlink:href="#md6b2cfe387" y="504"/>
      </g>
     </g>
     <g id="text_7">
      <!-- 1990 -->
      <g transform="translate(726.475 518.598438)scale(0.1 -0.1)">
       <use xlink:href="#DejaVuSans-31"/>
       <use x="63.623047" xlink:href="#DejaVuSans-39"/>
       <use x="127.246094" xlink:href="#DejaVuSans-39"/>
       <use x="190.869141" xlink:href="#DejaVuSans-30"/>
      </g>
     </g>
    </g>
    <g id="xtick_8">
     <g id="line2d_8">
      <g>
       <use style="stroke:#000000;stroke-width:0.8;" x="838.4" xlink:href="#md6b2cfe387" y="504"/>
      </g>
     </g>
     <g id="text_8">
      <!-- 2000 -->
      <g transform="translate(825.675 518.598438)scale(0.1 -0.1)">
       <defs>
        <path d="M 1228 531 
L 3431 531 
L 3431 0 
L 469 0 
L 469 531 
Q 828 903 1448 1529 
Q 2069 2156 2228 2338 
Q 2531 2678 2651 2914 
Q 2772 3150 2772 3378 
Q 2772 3750 2511 3984 
Q 2250 4219 1831 4219 
Q 1534 4219 1204 4116 
Q 875 4013 500 3803 
L 500 4441 
Q 881 4594 1212 4672 
Q 1544 4750 1819 4750 
Q 2544 4750 2975 4387 
Q 3406 4025 3406 3419 
Q 3406 3131 3298 2873 
Q 3191 2616 2906 2266 
Q 2828 2175 2409 1742 
Q 1991 1309 1228 531 
z
" id="DejaVuSans-32" transform="scale(0.015625)"/>
       </defs>
       <use xlink:href="#DejaVuSans-32"/>
       <use x="63.623047" xlink:href="#DejaVuSans-30"/>
       <use x="127.246094" xlink:href="#DejaVuSans-30"/>
       <use x="190.869141" xlink:href="#DejaVuSans-30"/>
      </g>
     </g>
    </g>
    <g id="xtick_9">
     <g id="line2d_9">
      <g>
       <use style="stroke:#000000;stroke-width:0.8;" x="937.6" xlink:href="#md6b2cfe387" y="504"/>
      </g>
     </g>
     <g id="text_9">
      <!-- 2010 -->
      <g transform="translate(924.875 518.598438)scale(0.1 -0.1)">
       <use xlink:href="#DejaVuSans-32"/>
       <use x="63.623047" xlink:href="#DejaVuSans-30"/>
       <use x="127.246094" xlink:href="#DejaVuSans-31"/>
       <use x="190.869141" xlink:href="#DejaVuSans-30"/>
      </g>
     </g>
    </g>
    <g id="xtick_10">
     <g id="line2d_10">
      <g>
       <use style="stroke:#000000;stroke-width:0.8;" x="1036.8" xlink:href="#md6b2cfe387" y="504"/>
      </g>
     </g>
     <g id="text_10">
      <!-- 2020 -->
      <g transform="translate(1024.075 518.598438)scale(0.1 -0.1)">
       <use xlink:href="#DejaVuSans-32"/>
       <use x="63.623047" xlink:href="#DejaVuSans-30"/>
       <use x="127.246094" xlink:href="#DejaVuSans-32"/>
       <use x="190.869141" xlink:href="#DejaVuSans-30"/>
      </g>
     </g>
    </g>
    <g id="text_11">
     <!-- Season -->
     <g transform="translate(557.734219 538.355312)scale(0.18 -0.18)">
      <defs>
       <path d="M 3425 4513 
L 3425 3897 
Q 3066 4069 2747 4153 
Q 2428 4238 2131 4238 
Q 1616 4238 1336 4038 
Q 1056 3838 1056 3469 
Q 1056 3159 1242 3001 
Q 1428 2844 1947 2747 
L 2328 2669 
Q 3034 2534 3370 2195 
Q 3706 1856 3706 1288 
Q 3706 609 3251 259 
Q 2797 -91 1919 -91 
Q 1588 -91 1214 -16 
Q 841 59 441 206 
L 441 856 
Q 825 641 1194 531 
Q 1563 422 1919 422 
Q 2459 422 2753 634 
Q 3047 847 3047 1241 
Q 3047 1584 2836 1778 
Q 2625 1972 2144 2069 
L 1759 2144 
Q 1053 2284 737 2584 
Q 422 2884 422 3419 
Q 422 4038 858 4394 
Q 1294 4750 2059 4750 
Q 2388 4750 2728 4690 
Q 3069 4631 3425 4513 
z
" id="DejaVuSans-53" transform="scale(0.015625)"/>
       <path d="M 3597 1894 
L 3597 1613 
L 953 1613 
Q 991 1019 1311 708 
Q 1631 397 2203 397 
Q 2534 397 2845 478 
Q 3156 559 3463 722 
L 3463 178 
Q 3153 47 2828 -22 
Q 2503 -91 2169 -91 
Q 1331 -91 842 396 
Q 353 884 353 1716 
Q 353 2575 817 3079 
Q 1281 3584 2069 3584 
Q 2775 3584 3186 3129 
Q 3597 2675 3597 1894 
z
M 3022 2063 
Q 3016 2534 2758 2815 
Q 2500 3097 2075 3097 
Q 1594 3097 1305 2825 
Q 1016 2553 972 2059 
L 3022 2063 
z
" id="DejaVuSans-65" transform="scale(0.015625)"/>
       <path d="M 2194 1759 
Q 1497 1759 1228 1600 
Q 959 1441 959 1056 
Q 959 750 1161 570 
Q 1363 391 1709 391 
Q 2188 391 2477 730 
Q 2766 1069 2766 1631 
L 2766 1759 
L 2194 1759 
z
M 3341 1997 
L 3341 0 
L 2766 0 
L 2766 531 
Q 2569 213 2275 61 
Q 1981 -91 1556 -91 
Q 1019 -91 701 211 
Q 384 513 384 1019 
Q 384 1609 779 1909 
Q 1175 2209 1959 2209 
L 2766 2209 
L 2766 2266 
Q 2766 2663 2505 2880 
Q 2244 3097 1772 3097 
Q 1472 3097 1187 3025 
Q 903 2953 641 2809 
L 641 3341 
Q 956 3463 1253 3523 
Q 1550 3584 1831 3584 
Q 2591 3584 2966 3190 
Q 3341 2797 3341 1997 
z
" id="DejaVuSans-61" transform="scale(0.015625)"/>
       <path d="M 2834 3397 
L 2834 2853 
Q 2591 2978 2328 3040 
Q 2066 3103 1784 3103 
Q 1356 3103 1142 2972 
Q 928 2841 928 2578 
Q 928 2378 1081 2264 
Q 1234 2150 1697 2047 
L 1894 2003 
Q 2506 1872 2764 1633 
Q 3022 1394 3022 966 
Q 3022 478 2636 193 
Q 2250 -91 1575 -91 
Q 1294 -91 989 -36 
Q 684 19 347 128 
L 347 722 
Q 666 556 975 473 
Q 1284 391 1588 391 
Q 1994 391 2212 530 
Q 2431 669 2431 922 
Q 2431 1156 2273 1281 
Q 2116 1406 1581 1522 
L 1381 1569 
Q 847 1681 609 1914 
Q 372 2147 372 2553 
Q 372 3047 722 3315 
Q 1072 3584 1716 3584 
Q 2034 3584 2315 3537 
Q 2597 3491 2834 3397 
z
" id="DejaVuSans-73" transform="scale(0.015625)"/>
       <path d="M 1959 3097 
Q 1497 3097 1228 2736 
Q 959 2375 959 1747 
Q 959 1119 1226 758 
Q 1494 397 1959 397 
Q 2419 397 2687 759 
Q 2956 1122 2956 1747 
Q 2956 2369 2687 2733 
Q 2419 3097 1959 3097 
z
M 1959 3584 
Q 2709 3584 3137 3096 
Q 3566 2609 3566 1747 
Q 3566 888 3137 398 
Q 2709 -91 1959 -91 
Q 1206 -91 779 398 
Q 353 888 353 1747 
Q 353 2609 779 3096 
Q 1206 3584 1959 3584 
z
" id="DejaVuSans-6f" transform="scale(0.015625)"/>
       <path d="M 3513 2113 
L 3513 0 
L 2938 0 
L 2938 2094 
Q 2938 2591 2744 2837 
Q 2550 3084 2163 3084 
Q 1697 3084 1428 2787 
Q 1159 2491 1159 1978 
L 1159 0 
L 581 0 
L 581 3500 
L 1159 3500 
L 1159 2956 
Q 1366 3272 1645 3428 
Q 1925 3584 2291 3584 
Q 2894 3584 3203 3211 
Q 3513 2838 3513 2113 
z
" id="DejaVuSans-6e" transform="scale(0.015625)"/>
      </defs>
      <use xlink:href="#DejaVuSans-53"/>
      <use x="63.476562" xlink:href="#DejaVuSans-65"/>
      <use x="125" xlink:href="#DejaVuSans-61"/>
      <use x="186.279297" xlink:href="#DejaVuSans-73"/>
      <use x="238.378906" xlink:href="#DejaVuSans-6f"/>
      <use x="299.560547" xlink:href="#DejaVuSans-6e"/>
     </g>
    </g>
   </g>
   <g id="matplotlib.axis_2">
    <g id="ytick_1">
     <g id="line2d_11">
      <defs>
       <path d="M 0 0 
L -3.5 0 
" id="ma7dcb35194" style="stroke:#000000;stroke-width:0.8;"/>
      </defs>
      <g>
       <use style="stroke:#000000;stroke-width:0.8;" x="144" xlink:href="#ma7dcb35194" y="395.28"/>
      </g>
     </g>
     <g id="text_12">
      <!-- 0.25 -->
      <g transform="translate(114.734375 399.079219)scale(0.1 -0.1)">
       <defs>
        <path d="M 684 794 
L 1344 794 
L 1344 0 
L 684 0 
L 684 794 
z
" id="DejaVuSans-2e" transform="scale(0.015625)"/>
       </defs>
       <use xlink:href="#DejaVuSans-30"/>
       <use x="63.623047" xlink:href="#DejaVuSans-2e"/>
       <use x="95.410156" xlink:href="#DejaVuSans-32"/>
       <use x="159.033203" xlink:href="#DejaVuSans-35"/>
      </g>
     </g>
    </g>
    <g id="ytick_2">
     <g id="line2d_12">
      <g>
       <use style="stroke:#000000;stroke-width:0.8;" x="144" xlink:href="#ma7dcb35194" y="286.56"/>
      </g>
     </g>
     <g id="text_13">
      <!-- 0.50 -->
      <g transform="translate(114.734375 290.359219)scale(0.1 -0.1)">
       <use xlink:href="#DejaVuSans-30"/>
       <use x="63.623047" xlink:href="#DejaVuSans-2e"/>
       <use x="95.410156" xlink:href="#DejaVuSans-35"/>
       <use x="159.033203" xlink:href="#DejaVuSans-30"/>
      </g>
     </g>
    </g>
    <g id="ytick_3">
     <g id="line2d_13">
      <g>
       <use style="stroke:#000000;stroke-width:0.8;" x="144" xlink:href="#ma7dcb35194" y="177.84"/>
      </g>
     </g>
     <g id="text_14">
      <!-- 0.75 -->
      <g transform="translate(114.734375 181.639219)scale(0.1 -0.1)">
       <use xlink:href="#DejaVuSans-30"/>
       <use x="63.623047" xlink:href="#DejaVuSans-2e"/>
       <use x="95.410156" xlink:href="#DejaVuSans-37"/>
       <use x="159.033203" xlink:href="#DejaVuSans-35"/>
      </g>
     </g>
    </g>
    <g id="ytick_4">
     <g id="line2d_14">
      <g>
       <use style="stroke:#000000;stroke-width:0.8;" x="144" xlink:href="#ma7dcb35194" y="69.12"/>
      </g>
     </g>
     <g id="text_15">
      <!-- 1.00 -->
      <g transform="translate(114.734375 72.919219)scale(0.1 -0.1)">
       <use xlink:href="#DejaVuSans-31"/>
       <use x="63.623047" xlink:href="#DejaVuSans-2e"/>
       <use x="95.410156" xlink:href="#DejaVuSans-30"/>
       <use x="159.033203" xlink:href="#DejaVuSans-30"/>
      </g>
     </g>
    </g>
    <g id="text_16">
     <!-- 10 Year Rolling Avg Win % -->
     <g transform="translate(106.990938 403.765312)rotate(-90)scale(0.18 -0.18)">
      <defs>
       <path id="DejaVuSans-20" transform="scale(0.015625)"/>
       <path d="M -13 4666 
L 666 4666 
L 1959 2747 
L 3244 4666 
L 3922 4666 
L 2272 2222 
L 2272 0 
L 1638 0 
L 1638 2222 
L -13 4666 
z
" id="DejaVuSans-59" transform="scale(0.015625)"/>
       <path d="M 2631 2963 
Q 2534 3019 2420 3045 
Q 2306 3072 2169 3072 
Q 1681 3072 1420 2755 
Q 1159 2438 1159 1844 
L 1159 0 
L 581 0 
L 581 3500 
L 1159 3500 
L 1159 2956 
Q 1341 3275 1631 3429 
Q 1922 3584 2338 3584 
Q 2397 3584 2469 3576 
Q 2541 3569 2628 3553 
L 2631 2963 
z
" id="DejaVuSans-72" transform="scale(0.015625)"/>
       <path d="M 2841 2188 
Q 3044 2119 3236 1894 
Q 3428 1669 3622 1275 
L 4263 0 
L 3584 0 
L 2988 1197 
Q 2756 1666 2539 1819 
Q 2322 1972 1947 1972 
L 1259 1972 
L 1259 0 
L 628 0 
L 628 4666 
L 2053 4666 
Q 2853 4666 3247 4331 
Q 3641 3997 3641 3322 
Q 3641 2881 3436 2590 
Q 3231 2300 2841 2188 
z
M 1259 4147 
L 1259 2491 
L 2053 2491 
Q 2509 2491 2742 2702 
Q 2975 2913 2975 3322 
Q 2975 3731 2742 3939 
Q 2509 4147 2053 4147 
L 1259 4147 
z
" id="DejaVuSans-52" transform="scale(0.015625)"/>
       <path d="M 603 4863 
L 1178 4863 
L 1178 0 
L 603 0 
L 603 4863 
z
" id="DejaVuSans-6c" transform="scale(0.015625)"/>
       <path d="M 603 3500 
L 1178 3500 
L 1178 0 
L 603 0 
L 603 3500 
z
M 603 4863 
L 1178 4863 
L 1178 4134 
L 603 4134 
L 603 4863 
z
" id="DejaVuSans-69" transform="scale(0.015625)"/>
       <path d="M 2906 1791 
Q 2906 2416 2648 2759 
Q 2391 3103 1925 3103 
Q 1463 3103 1205 2759 
Q 947 2416 947 1791 
Q 947 1169 1205 825 
Q 1463 481 1925 481 
Q 2391 481 2648 825 
Q 2906 1169 2906 1791 
z
M 3481 434 
Q 3481 -459 3084 -895 
Q 2688 -1331 1869 -1331 
Q 1566 -1331 1297 -1286 
Q 1028 -1241 775 -1147 
L 775 -588 
Q 1028 -725 1275 -790 
Q 1522 -856 1778 -856 
Q 2344 -856 2625 -561 
Q 2906 -266 2906 331 
L 2906 616 
Q 2728 306 2450 153 
Q 2172 0 1784 0 
Q 1141 0 747 490 
Q 353 981 353 1791 
Q 353 2603 747 3093 
Q 1141 3584 1784 3584 
Q 2172 3584 2450 3431 
Q 2728 3278 2906 2969 
L 2906 3500 
L 3481 3500 
L 3481 434 
z
" id="DejaVuSans-67" transform="scale(0.015625)"/>
       <path d="M 2188 4044 
L 1331 1722 
L 3047 1722 
L 2188 4044 
z
M 1831 4666 
L 2547 4666 
L 4325 0 
L 3669 0 
L 3244 1197 
L 1141 1197 
L 716 0 
L 50 0 
L 1831 4666 
z
" id="DejaVuSans-41" transform="scale(0.015625)"/>
       <path d="M 191 3500 
L 800 3500 
L 1894 563 
L 2988 3500 
L 3597 3500 
L 2284 0 
L 1503 0 
L 191 3500 
z
" id="DejaVuSans-76" transform="scale(0.015625)"/>
       <path d="M 213 4666 
L 850 4666 
L 1831 722 
L 2809 4666 
L 3519 4666 
L 4500 722 
L 5478 4666 
L 6119 4666 
L 4947 0 
L 4153 0 
L 3169 4050 
L 2175 0 
L 1381 0 
L 213 4666 
z
" id="DejaVuSans-57" transform="scale(0.015625)"/>
       <path d="M 4653 2053 
Q 4381 2053 4226 1822 
Q 4072 1591 4072 1178 
Q 4072 772 4226 539 
Q 4381 306 4653 306 
Q 4919 306 5073 539 
Q 5228 772 5228 1178 
Q 5228 1588 5073 1820 
Q 4919 2053 4653 2053 
z
M 4653 2450 
Q 5147 2450 5437 2106 
Q 5728 1763 5728 1178 
Q 5728 594 5436 251 
Q 5144 -91 4653 -91 
Q 4153 -91 3862 251 
Q 3572 594 3572 1178 
Q 3572 1766 3864 2108 
Q 4156 2450 4653 2450 
z
M 1428 4353 
Q 1159 4353 1004 4120 
Q 850 3888 850 3481 
Q 850 3069 1003 2837 
Q 1156 2606 1428 2606 
Q 1700 2606 1854 2837 
Q 2009 3069 2009 3481 
Q 2009 3884 1853 4118 
Q 1697 4353 1428 4353 
z
M 4250 4750 
L 4750 4750 
L 1831 -91 
L 1331 -91 
L 4250 4750 
z
M 1428 4750 
Q 1922 4750 2215 4408 
Q 2509 4066 2509 3481 
Q 2509 2891 2217 2550 
Q 1925 2209 1428 2209 
Q 931 2209 642 2551 
Q 353 2894 353 3481 
Q 353 4063 643 4406 
Q 934 4750 1428 4750 
z
" id="DejaVuSans-25" transform="scale(0.015625)"/>
      </defs>
      <use xlink:href="#DejaVuSans-31"/>
      <use x="63.623047" xlink:href="#DejaVuSans-30"/>
      <use x="127.246094" xlink:href="#DejaVuSans-20"/>
      <use x="159.033203" xlink:href="#DejaVuSans-59"/>
      <use x="206.867188" xlink:href="#DejaVuSans-65"/>
      <use x="268.390625" xlink:href="#DejaVuSans-61"/>
      <use x="329.669922" xlink:href="#DejaVuSans-72"/>
      <use x="370.783203" xlink:href="#DejaVuSans-20"/>
      <use x="402.570312" xlink:href="#DejaVuSans-52"/>
      <use x="467.552734" xlink:href="#DejaVuSans-6f"/>
      <use x="528.734375" xlink:href="#DejaVuSans-6c"/>
      <use x="556.517578" xlink:href="#DejaVuSans-6c"/>
      <use x="584.300781" xlink:href="#DejaVuSans-69"/>
      <use x="612.083984" xlink:href="#DejaVuSans-6e"/>
      <use x="675.462891" xlink:href="#DejaVuSans-67"/>
      <use x="738.939453" xlink:href="#DejaVuSans-20"/>
      <use x="770.726562" xlink:href="#DejaVuSans-41"/>
      <use x="833.259766" xlink:href="#DejaVuSans-76"/>
      <use x="892.439453" xlink:href="#DejaVuSans-67"/>
      <use x="955.916016" xlink:href="#DejaVuSans-20"/>
      <use x="987.703125" xlink:href="#DejaVuSans-57"/>
      <use x="1084.330078" xlink:href="#DejaVuSans-69"/>
      <use x="1112.113281" xlink:href="#DejaVuSans-6e"/>
      <use x="1175.492188" xlink:href="#DejaVuSans-20"/>
      <use x="1207.279297" xlink:href="#DejaVuSans-25"/>
     </g>
    </g>
   </g>
   <g id="patch_3">
    <path d="M 144 504 
L 144 69.12 
" style="fill:none;stroke:#000000;stroke-linecap:square;stroke-linejoin:miter;stroke-width:0.8;"/>
   </g>
   <g id="patch_4">
    <path d="M 1036.8 504 
L 1036.8 69.12 
" style="fill:none;stroke:#000000;stroke-linecap:square;stroke-linejoin:miter;stroke-width:0.8;"/>
   </g>
   <g id="patch_5">
    <path d="M 144 504 
L 1036.8 504 
" style="fill:none;stroke:#000000;stroke-linecap:square;stroke-linejoin:miter;stroke-width:0.8;"/>
   </g>
   <g id="patch_6">
    <path d="M 144 69.12 
L 1036.8 69.12 
" style="fill:none;stroke:#000000;stroke-linecap:square;stroke-linejoin:miter;stroke-width:0.8;"/>
   </g>
  </g>
  <g id="axes_2">
   <g id="matplotlib.axis_3">
    <g id="ytick_5">
     <g id="line2d_15">
      <defs>
       <path d="M 0 0 
L 3.5 0 
" id="m78dc4f83e4" style="stroke:#000000;stroke-width:0.8;"/>
      </defs>
      <g>
       <use style="stroke:#000000;stroke-width:0.8;" x="1036.8" xlink:href="#m78dc4f83e4" y="395.28"/>
      </g>
     </g>
     <g id="text_17">
      <!-- 0.25 -->
      <g transform="translate(1043.8 399.079219)scale(0.1 -0.1)">
       <use xlink:href="#DejaVuSans-30"/>
       <use x="63.623047" xlink:href="#DejaVuSans-2e"/>
       <use x="95.410156" xlink:href="#DejaVuSans-32"/>
       <use x="159.033203" xlink:href="#DejaVuSans-35"/>
      </g>
     </g>
    </g>
    <g id="ytick_6">
     <g id="line2d_16">
      <g>
       <use style="stroke:#000000;stroke-width:0.8;" x="1036.8" xlink:href="#m78dc4f83e4" y="286.56"/>
      </g>
     </g>
     <g id="text_18">
      <!-- 0.50 -->
      <g transform="translate(1043.8 290.359219)scale(0.1 -0.1)">
       <use xlink:href="#DejaVuSans-30"/>
       <use x="63.623047" xlink:href="#DejaVuSans-2e"/>
       <use x="95.410156" xlink:href="#DejaVuSans-35"/>
       <use x="159.033203" xlink:href="#DejaVuSans-30"/>
      </g>
     </g>
    </g>
    <g id="ytick_7">
     <g id="line2d_17">
      <g>
       <use style="stroke:#000000;stroke-width:0.8;" x="1036.8" xlink:href="#m78dc4f83e4" y="177.84"/>
      </g>
     </g>
     <g id="text_19">
      <!-- 0.75 -->
      <g transform="translate(1043.8 181.639219)scale(0.1 -0.1)">
       <use xlink:href="#DejaVuSans-30"/>
       <use x="63.623047" xlink:href="#DejaVuSans-2e"/>
       <use x="95.410156" xlink:href="#DejaVuSans-37"/>
       <use x="159.033203" xlink:href="#DejaVuSans-35"/>
      </g>
     </g>
    </g>
    <g id="ytick_8">
     <g id="line2d_18">
      <g>
       <use style="stroke:#000000;stroke-width:0.8;" x="1036.8" xlink:href="#m78dc4f83e4" y="69.12"/>
      </g>
     </g>
     <g id="text_20">
      <!-- 1.00 -->
      <g transform="translate(1043.8 72.919219)scale(0.1 -0.1)">
       <use xlink:href="#DejaVuSans-31"/>
       <use x="63.623047" xlink:href="#DejaVuSans-2e"/>
       <use x="95.410156" xlink:href="#DejaVuSans-30"/>
       <use x="159.033203" xlink:href="#DejaVuSans-30"/>
      </g>
     </g>
    </g>
   </g>
   <g id="line2d_19">
    <path clip-path="url(#pbae079fee8)" d="M -1 469.730036 
L 24.96 455.68 
L 24.96 413.4 
L 34.88 379.3344 
L 34.88 363.872 
L 44.8 357.26498 
L 44.8 355.221857 
L 54.72 350.277206 
L 54.72 343.905486 
L 64.64 320.184758 
L 64.64 294.816758 
L 74.56 282.550912 
L 74.56 276.338341 
L 84.48 273.439141 
L 84.48 253.225443 
L 104.32 238.125443 
L 104.32 225.409654 
L 114.24 214.537654 
L 124.16 207.195524 
L 144 202.912615 
L 144 199.421939 
L 153.92 196.574511 
L 163.84 195.994671 
L 163.84 197.458209 
L 173.76 199.163621 
L 173.76 202.61505 
L 183.68 207.666287 
L 183.68 212.739887 
L 193.6 217.148809 
L 193.6 219.619718 
L 203.52 222.198058 
L 203.52 224.862764 
L 213.44 225.856775 
L 213.44 225.299237 
L 223.36 226.082804 
L 223.36 225.42885 
L 233.28 223.429401 
L 233.28 221.617401 
L 243.2 218.572215 
L 243.2 215.724786 
L 253.12 214.069852 
L 253.12 212.558237 
L 263.04 212.144065 
L 263.04 211.828935 
L 272.96 210.428516 
L 292.8 209.141043 
L 302.72 208.845206 
L 302.72 208.627766 
L 312.64 208.482182 
L 312.64 209.238841 
L 322.56 209.028939 
L 322.56 208.882514 
L 332.48 207.82826 
L 332.48 206.849105 
L 342.4 205.940061 
L 352.32 205.846337 
L 352.32 205.650784 
L 362.24 205.505824 
L 362.24 206.12089 
L 372.16 206.633466 
L 372.16 207.870771 
L 382.08 209.129104 
L 382.08 211.07542 
L 392 213.687524 
L 392 216.944284 
L 401.92 220.075773 
L 401.92 223.088206 
L 411.84 226.090949 
L 411.84 228.370279 
L 431.68 232.642241 
L 441.6 235.323512 
L 441.6 237.33065 
L 451.52 239.255358 
L 451.52 240.536648 
L 461.44 241.750114 
L 481.28 242.969721 
L 481.28 243.612475 
L 491.2 243.671402 
L 491.2 243.161805 
L 530.88 240.976295 
L 560.64 241.046011 
L 560.64 241.581231 
L 570.56 241.668131 
L 580.48 241.236201 
L 580.48 240.329235 
L 590.4 239.895565 
L 590.4 238.997277 
L 600.32 238.127517 
L 600.32 237.285295 
L 610.24 236.469663 
L 610.24 235.212102 
L 620.16 233.984331 
L 620.16 233.199586 
L 630.08 232.438888 
L 630.08 232.107878 
L 640 231.754517 
L 640 231.818997 
L 649.92 231.898067 
L 649.92 232.382947 
L 659.84 233.266107 
L 659.84 234.540221 
L 669.76 236.198164 
L 669.76 237.440678 
L 679.68 239.060514 
L 679.68 240.272857 
L 689.6 241.085015 
L 689.6 241.504103 
L 699.52 242.294794 
L 699.52 243.058935 
L 709.44 243.440855 
L 709.44 243.800674 
L 719.36 243.788368 
L 719.36 243.788368 
L 729.28 243.425373 
L 729.28 243.077094 
L 739.2 242.743103 
L 739.2 242.7601 
L 778.88 242.716654 
L 778.88 242.736649 
L 788.8 243.081323 
L 788.8 243.408738 
L 798.72 243.408738 
L 798.72 243.086186 
L 808.64 242.775293 
L 808.64 242.148776 
L 818.56 241.535762 
L 818.56 241.235844 
L 828.48 241.244605 
L 828.48 241.557717 
L 838.4 241.855813 
L 838.4 242.13928 
L 848.32 242.71912 
L 848.32 243.59129 
L 868.16 245.912623 
L 878.08 247.355948 
L 878.08 248.778136 
L 888 250.179619 
L 888 251.560819 
L 897.92 252.646903 
L 897.92 253.715242 
L 907.84 254.766202 
L 907.84 255.530028 
L 917.76 256.278847 
L 937.6 258.29935 
L 937.6 259.285588 
L 947.52 259.994267 
L 947.52 260.428831 
L 957.44 260.867906 
L 957.44 261.295163 
L 967.36 261.710857 
L 967.36 262.131031 
L 977.28 262.287103 
L 977.28 262.182235 
L 977.28 262.069461 
L 987.2 261.948975 
L 987.2 262.08294 
L 997.12 262.468401 
L 1007.04 263.102456 
L 1007.04 263.481975 
L 1016.96 263.609881 
L 1016.96 263.743362 
L 1026.88 264.121228 
L 1026.88 265.349267 
L 1036.8 265.947017 
L 1036.8 266.300383 
L 1046.72 266.516026 
L 1046.72 266.516026 
" style="fill:none;stroke:#1f77b4;stroke-linecap:square;stroke-width:3;"/>
   </g>
   <g id="line2d_20">
    <path clip-path="url(#pbae079fee8)" d="M 94.4 69.12 
L 114.24 69.12 
L 114.24 69.12 
L 124.16 81.2 
L 124.16 88.349388 
L 134.08 92.740714 
L 134.08 95.485079 
L 144 97.197371 
L 144 101.150826 
L 342.4 104.774826 
L 342.4 108.120057 
L 352.32 111.226342 
L 352.32 114.125542 
L 352.32 109.595542 
L 362.24 105.941089 
L 362.24 100.377931 
L 372.16 98.203531 
L 372.16 93.219212 
L 382.08 91.924927 
L 382.08 90.765247 
L 382.08 92.055693 
L 392 92.745979 
L 392 94.91593 
L 401.92 95.657202 
L 401.92 97.893682 
L 411.84 96.964451 
L 411.84 94.507359 
L 421.76 94.869759 
L 421.76 99.090952 
L 431.68 102.463016 
L 431.68 115.996037 
L 441.6 120.955195 
L 441.6 137.493643 
L 451.52 142.551313 
L 451.52 151.381665 
L 461.44 153.306212 
L 461.44 156.15736 
L 471.36 156.777846 
L 471.36 158.106321 
L 481.28 159.440154 
L 481.28 163.463296 
L 491.2 164.808513 
L 491.2 169.793211 
L 501.12 170.84534 
L 501.12 182.780293 
L 511.04 184.178121 
L 511.04 187.970141 
L 520.96 189.22619 
L 520.96 195.265446 
L 530.88 195.820034 
L 530.88 198.729366 
L 540.8 199.677505 
L 540.8 201.079181 
L 550.72 202.924798 
L 550.72 210.717994 
L 560.64 212.355022 
L 560.64 213.53214 
L 570.56 215.121914 
L 570.56 222.521148 
L 580.48 224.333148 
L 580.48 229.942379 
L 590.4 231.63295 
L 590.4 235.015305 
L 600.32 236.234287 
L 600.32 238.641174 
L 610.24 239.113014 
L 610.24 239.50812 
L 620.16 239.882421 
L 620.16 240.331151 
L 630.08 240.373774 
L 630.08 241.076972 
L 640 241.49073 
L 649.92 241.203038 
L 649.92 240.315104 
L 649.92 240.323865 
L 659.84 240.319546 
L 659.84 243.285037 
L 669.76 244.75183 
L 669.76 249.344761 
L 679.68 250.746244 
L 679.68 254.830617 
L 689.6 256.153377 
L 689.6 259.475616 
L 699.52 260.460536 
L 699.52 265.238937 
L 709.44 265.894455 
L 709.44 270.066778 
L 719.36 270.68004 
L 719.36 271.718581 
L 729.28 272.301263 
L 729.28 274.289458 
L 739.2 274.833478 
L 739.2 278.163146 
L 749.12 278.684494 
L 749.12 280.193001 
L 759.04 280.690062 
L 759.04 281.020568 
L 768.96 281.055617 
L 768.96 280.86599 
L 778.88 280.900323 
L 778.88 279.703243 
L 788.8 279.306167 
L 788.8 278.136277 
L 798.72 277.75672 
L 798.72 275.421865 
L 808.64 275.055282 
L 808.64 274.385838 
L 818.56 274.433791 
L 818.56 275.392949 
L 828.48 275.840174 
L 828.48 277.121587 
L 838.4 277.75986 
L 838.4 279.055092 
L 848.32 279.284018 
L 848.32 280.931252 
L 858.24 281.327834 
L 858.24 282.497215 
L 868.16 282.892494 
L 868.16 284.636872 
L 878.08 284.827357 
L 878.08 285.211678 
L 888 285.394401 
L 888 285.927857 
L 897.92 286.458418 
L 897.92 290.404898 
L 907.84 290.905249 
L 907.84 291.233081 
L 917.76 291.556365 
L 917.76 292.334801 
L 917.76 292.277273 
L 927.68 292.096136 
L 927.68 291.389316 
L 937.6 291.205024 
L 937.6 289.847633 
L 947.52 289.675936 
L 947.52 288.837847 
L 957.44 288.670107 
L 957.44 288.17965 
L 967.36 288.023218 
L 967.36 287.558859 
L 977.28 287.251995 
L 977.28 285.897248 
L 987.2 285.598274 
L 987.2 284.57816 
L 997.12 284.291686 
L 997.12 283.313283 
L 1007.04 283.033849 
L 1007.04 282.899349 
L 1007.04 283.076685 
L 1016.96 283.229915 
L 1016.96 284.398716 
L 1026.88 284.550968 
L 1026.88 284.837647 
L 1036.8 284.996362 
L 1036.8 284.868925 
L 1046.72 284.606348 
L 1046.72 284.342464 
L 1046.72 284.342464 
" style="fill:none;stroke:#ff7f0e;stroke-linecap:square;stroke-width:3;"/>
   </g>
   <g id="line2d_21">
    <path clip-path="url(#pbae079fee8)" d="M -1 140.275856 
L 5.12 147.592935 
L 15.04 158.464935 
L 24.96 168.500627 
L 34.88 166.947485 
L 44.8 166.947485 
L 54.72 167.853485 
L 64.64 169.315266 
L 74.56 165.691266 
L 84.48 162.893792 
L 94.4 156.370592 
L 104.32 150.7228 
L 114.24 145.780982 
L 124.16 141.417637 
L 134.08 137.53478 
L 144 135.79526 
L 153.92 136.004337 
L 163.84 136.383318 
L 173.76 136.901032 
L 183.68 139.032023 
L 193.6 142.656023 
L 203.52 147.666161 
L 213.44 153.966979 
L 223.36 160.154995 
L 233.28 166.230525 
L 243.2 170.455073 
L 253.12 172.963996 
L 263.04 175.488825 
L 292.8 178.0229 
L 302.72 179.061075 
L 312.64 178.698675 
L 322.56 177.022112 
L 332.48 174.109969 
L 342.4 172.363094 
L 352.32 171.723564 
L 362.24 172.137736 
L 372.16 173.555823 
L 382.08 175.006256 
L 392 176.484467 
L 401.92 178.873917 
L 411.84 182.135517 
L 421.76 186.232665 
L 431.68 191.131039 
L 441.6 195.78706 
L 451.52 200.216393 
L 461.44 204.433411 
L 471.36 208.451324 
L 481.28 212.444623 
L 491.2 217.162072 
L 501.12 221.689878 
L 511.04 226.038678 
L 520.96 229.505417 
L 530.88 232.82367 
L 540.8 235.311303 
L 550.72 236.99747 
L 560.64 237.909806 
L 570.56 238.074533 
L 580.48 238.279504 
L 590.4 237.772291 
L 600.32 236.575863 
L 610.24 234.712092 
L 620.16 233.527242 
L 630.08 231.695758 
L 640 229.927492 
L 649.92 228.21956 
L 659.84 226.569246 
L 669.76 224.973992 
L 679.68 223.996166 
L 689.6 223.061469 
L 699.52 222.167934 
L 709.44 221.857306 
L 719.36 220.965012 
L 729.28 220.110573 
L 739.2 219.816298 
L 749.12 219.550445 
L 759.04 219.311687 
L 768.96 219.604446 
L 778.88 219.351269 
L 788.8 219.617367 
L 798.72 219.901886 
L 808.64 219.660286 
L 818.56 219.44199 
L 828.48 219.71869 
L 838.4 219.4877 
L 848.32 219.74105 
L 858.24 220.010326 
L 868.16 219.789093 
L 878.08 219.588117 
L 888 218.912399 
L 897.92 218.260894 
L 907.84 217.632734 
L 917.76 217.457665 
L 927.68 217.253757 
L 937.6 217.489834 
L 947.52 217.694462 
L 957.44 217.912447 
L 967.36 218.553485 
L 977.28 219.609365 
L 987.2 221.072113 
L 997.12 222.535012 
L 1007.04 224.393136 
L 1016.96 225.816746 
L 1026.88 226.814107 
L 1036.8 227.778099 
" style="fill:none;stroke:#2ca02c;stroke-linecap:square;stroke-width:3;"/>
   </g>
   <g id="line2d_22">
    <path clip-path="url(#pbae079fee8)" d="M 838.4 504 
L 848.32 504 
L 858.24 504 
L 858.24 476.82 
L 868.16 447.4656 
L 878.08 432.728 
L 888 425.15951 
L 888 421.424571 
L 897.92 419.861841 
L 907.84 419.578057 
L 917.76 411.671148 
L 927.68 404.423148 
L 937.6 394.387456 
L 937.6 392.834313 
L 947.52 398.632713 
L 957.44 399.538713 
L 957.44 399.173268 
L 967.36 397.965268 
L 977.28 393.896215 
L 987.2 387.373015 
L 997.12 380.783924 
L 1007.04 374.194833 
L 1016.96 370.995047 
L 1026.88 368.92419 
L 1026.88 364.86531 
L 1046.72 361.729156 
L 1046.72 356.802411 
L 1046.72 350.244697 
" style="fill:none;stroke:#d62728;stroke-linecap:square;stroke-width:3;"/>
   </g>
   <g id="patch_7">
    <path d="M 144 504 
L 144 69.12 
" style="fill:none;stroke:#000000;stroke-linecap:square;stroke-linejoin:miter;stroke-width:0.8;"/>
   </g>
   <g id="patch_8">
    <path d="M 1036.8 504 
L 1036.8 69.12 
" style="fill:none;stroke:#000000;stroke-linecap:square;stroke-linejoin:miter;stroke-width:0.8;"/>
   </g>
   <g id="patch_9">
    <path d="M 144 504 
L 1036.8 504 
" style="fill:none;stroke:#000000;stroke-linecap:square;stroke-linejoin:miter;stroke-width:0.8;"/>
   </g>
   <g id="patch_10">
    <path d="M 144 69.12 
L 1036.8 69.12 
" style="fill:none;stroke:#000000;stroke-linecap:square;stroke-linejoin:miter;stroke-width:0.8;"/>
   </g>
   <g id="text_21">
    <!-- Michigan vs. Michigan State (Men's Rivalries) -->
    <g transform="translate(319.1775 63.12)scale(0.24 -0.24)">
     <defs>
      <path d="M 628 4666 
L 1569 4666 
L 2759 1491 
L 3956 4666 
L 4897 4666 
L 4897 0 
L 4281 0 
L 4281 4097 
L 3078 897 
L 2444 897 
L 1241 4097 
L 1241 0 
L 628 0 
L 628 4666 
z
" id="DejaVuSans-4d" transform="scale(0.015625)"/>
      <path d="M 3122 3366 
L 3122 2828 
Q 2878 2963 2633 3030 
Q 2388 3097 2138 3097 
Q 1578 3097 1268 2742 
Q 959 2388 959 1747 
Q 959 1106 1268 751 
Q 1578 397 2138 397 
Q 2388 397 2633 464 
Q 2878 531 3122 666 
L 3122 134 
Q 2881 22 2623 -34 
Q 2366 -91 2075 -91 
Q 1284 -91 818 406 
Q 353 903 353 1747 
Q 353 2603 823 3093 
Q 1294 3584 2113 3584 
Q 2378 3584 2631 3529 
Q 2884 3475 3122 3366 
z
" id="DejaVuSans-63" transform="scale(0.015625)"/>
      <path d="M 3513 2113 
L 3513 0 
L 2938 0 
L 2938 2094 
Q 2938 2591 2744 2837 
Q 2550 3084 2163 3084 
Q 1697 3084 1428 2787 
Q 1159 2491 1159 1978 
L 1159 0 
L 581 0 
L 581 4863 
L 1159 4863 
L 1159 2956 
Q 1366 3272 1645 3428 
Q 1925 3584 2291 3584 
Q 2894 3584 3203 3211 
Q 3513 2838 3513 2113 
z
" id="DejaVuSans-68" transform="scale(0.015625)"/>
      <path d="M 1172 4494 
L 1172 3500 
L 2356 3500 
L 2356 3053 
L 1172 3053 
L 1172 1153 
Q 1172 725 1289 603 
Q 1406 481 1766 481 
L 2356 481 
L 2356 0 
L 1766 0 
Q 1100 0 847 248 
Q 594 497 594 1153 
L 594 3053 
L 172 3053 
L 172 3500 
L 594 3500 
L 594 4494 
L 1172 4494 
z
" id="DejaVuSans-74" transform="scale(0.015625)"/>
      <path d="M 1984 4856 
Q 1566 4138 1362 3434 
Q 1159 2731 1159 2009 
Q 1159 1288 1364 580 
Q 1569 -128 1984 -844 
L 1484 -844 
Q 1016 -109 783 600 
Q 550 1309 550 2009 
Q 550 2706 781 3412 
Q 1013 4119 1484 4856 
L 1984 4856 
z
" id="DejaVuSans-28" transform="scale(0.015625)"/>
      <path d="M 1147 4666 
L 1147 2931 
L 616 2931 
L 616 4666 
L 1147 4666 
z
" id="DejaVuSans-27" transform="scale(0.015625)"/>
      <path d="M 513 4856 
L 1013 4856 
Q 1481 4119 1714 3412 
Q 1947 2706 1947 2009 
Q 1947 1309 1714 600 
Q 1481 -109 1013 -844 
L 513 -844 
Q 928 -128 1133 580 
Q 1338 1288 1338 2009 
Q 1338 2731 1133 3434 
Q 928 4138 513 4856 
z
" id="DejaVuSans-29" transform="scale(0.015625)"/>
     </defs>
     <use xlink:href="#DejaVuSans-4d"/>
     <use x="86.279297" xlink:href="#DejaVuSans-69"/>
     <use x="114.0625" xlink:href="#DejaVuSans-63"/>
     <use x="169.042969" xlink:href="#DejaVuSans-68"/>
     <use x="232.421875" xlink:href="#DejaVuSans-69"/>
     <use x="260.205078" xlink:href="#DejaVuSans-67"/>
     <use x="323.681641" xlink:href="#DejaVuSans-61"/>
     <use x="384.960938" xlink:href="#DejaVuSans-6e"/>
     <use x="448.339844" xlink:href="#DejaVuSans-20"/>
     <use x="480.126953" xlink:href="#DejaVuSans-76"/>
     <use x="539.306641" xlink:href="#DejaVuSans-73"/>
     <use x="591.40625" xlink:href="#DejaVuSans-2e"/>
     <use x="623.193359" xlink:href="#DejaVuSans-20"/>
     <use x="654.980469" xlink:href="#DejaVuSans-4d"/>
     <use x="741.259766" xlink:href="#DejaVuSans-69"/>
     <use x="769.042969" xlink:href="#DejaVuSans-63"/>
     <use x="824.023438" xlink:href="#DejaVuSans-68"/>
     <use x="887.402344" xlink:href="#DejaVuSans-69"/>
     <use x="915.185547" xlink:href="#DejaVuSans-67"/>
     <use x="978.662109" xlink:href="#DejaVuSans-61"/>
     <use x="1039.941406" xlink:href="#DejaVuSans-6e"/>
     <use x="1103.320312" xlink:href="#DejaVuSans-20"/>
     <use x="1135.107422" xlink:href="#DejaVuSans-53"/>
     <use x="1198.583984" xlink:href="#DejaVuSans-74"/>
     <use x="1237.792969" xlink:href="#DejaVuSans-61"/>
     <use x="1299.072266" xlink:href="#DejaVuSans-74"/>
     <use x="1338.28125" xlink:href="#DejaVuSans-65"/>
     <use x="1399.804688" xlink:href="#DejaVuSans-20"/>
     <use x="1431.591797" xlink:href="#DejaVuSans-28"/>
     <use x="1470.605469" xlink:href="#DejaVuSans-4d"/>
     <use x="1556.884766" xlink:href="#DejaVuSans-65"/>
     <use x="1618.408203" xlink:href="#DejaVuSans-6e"/>
     <use x="1681.787109" xlink:href="#DejaVuSans-27"/>
     <use x="1709.277344" xlink:href="#DejaVuSans-73"/>
     <use x="1761.376953" xlink:href="#DejaVuSans-20"/>
     <use x="1793.164062" xlink:href="#DejaVuSans-52"/>
     <use x="1862.646484" xlink:href="#DejaVuSans-69"/>
     <use x="1890.429688" xlink:href="#DejaVuSans-76"/>
     <use x="1949.609375" xlink:href="#DejaVuSans-61"/>
     <use x="2010.888672" xlink:href="#DejaVuSans-6c"/>
     <use x="2038.671875" xlink:href="#DejaVuSans-72"/>
     <use x="2079.785156" xlink:href="#DejaVuSans-69"/>
     <use x="2107.568359" xlink:href="#DejaVuSans-65"/>
     <use x="2169.091797" xlink:href="#DejaVuSans-73"/>
     <use x="2221.191406" xlink:href="#DejaVuSans-29"/>
    </g>
   </g>
   <g id="legend_1">
    <g id="patch_11">
     <path d="M 842.556562 162.5175 
L 1027 162.5175 
Q 1029.8 162.5175 1029.8 159.7175 
L 1029.8 78.92 
Q 1029.8 76.12 1027 76.12 
L 842.556562 76.12 
Q 839.756562 76.12 839.756562 78.92 
L 839.756562 159.7175 
Q 839.756562 162.5175 842.556562 162.5175 
z
" style="fill:#ffffff;opacity:0.8;stroke:#cccccc;stroke-linejoin:miter;"/>
    </g>
    <g id="line2d_23">
     <path d="M 845.356562 87.457813 
L 873.356562 87.457813 
" style="fill:none;stroke:#1f77b4;stroke-linecap:square;stroke-width:3;"/>
    </g>
    <g id="line2d_24"/>
    <g id="text_22">
     <!-- Michigan Basketball -->
     <g transform="translate(884.556563 92.357813)scale(0.14 -0.14)">
      <defs>
       <path d="M 1259 2228 
L 1259 519 
L 2272 519 
Q 2781 519 3026 730 
Q 3272 941 3272 1375 
Q 3272 1813 3026 2020 
Q 2781 2228 2272 2228 
L 1259 2228 
z
M 1259 4147 
L 1259 2741 
L 2194 2741 
Q 2656 2741 2882 2914 
Q 3109 3088 3109 3444 
Q 3109 3797 2882 3972 
Q 2656 4147 2194 4147 
L 1259 4147 
z
M 628 4666 
L 2241 4666 
Q 2963 4666 3353 4366 
Q 3744 4066 3744 3513 
Q 3744 3084 3544 2831 
Q 3344 2578 2956 2516 
Q 3422 2416 3680 2098 
Q 3938 1781 3938 1306 
Q 3938 681 3513 340 
Q 3088 0 2303 0 
L 628 0 
L 628 4666 
z
" id="DejaVuSans-42" transform="scale(0.015625)"/>
       <path d="M 581 4863 
L 1159 4863 
L 1159 1991 
L 2875 3500 
L 3609 3500 
L 1753 1863 
L 3688 0 
L 2938 0 
L 1159 1709 
L 1159 0 
L 581 0 
L 581 4863 
z
" id="DejaVuSans-6b" transform="scale(0.015625)"/>
       <path d="M 3116 1747 
Q 3116 2381 2855 2742 
Q 2594 3103 2138 3103 
Q 1681 3103 1420 2742 
Q 1159 2381 1159 1747 
Q 1159 1113 1420 752 
Q 1681 391 2138 391 
Q 2594 391 2855 752 
Q 3116 1113 3116 1747 
z
M 1159 2969 
Q 1341 3281 1617 3432 
Q 1894 3584 2278 3584 
Q 2916 3584 3314 3078 
Q 3713 2572 3713 1747 
Q 3713 922 3314 415 
Q 2916 -91 2278 -91 
Q 1894 -91 1617 61 
Q 1341 213 1159 525 
L 1159 0 
L 581 0 
L 581 4863 
L 1159 4863 
L 1159 2969 
z
" id="DejaVuSans-62" transform="scale(0.015625)"/>
      </defs>
      <use xlink:href="#DejaVuSans-4d"/>
      <use x="86.279297" xlink:href="#DejaVuSans-69"/>
      <use x="114.0625" xlink:href="#DejaVuSans-63"/>
      <use x="169.042969" xlink:href="#DejaVuSans-68"/>
      <use x="232.421875" xlink:href="#DejaVuSans-69"/>
      <use x="260.205078" xlink:href="#DejaVuSans-67"/>
      <use x="323.681641" xlink:href="#DejaVuSans-61"/>
      <use x="384.960938" xlink:href="#DejaVuSans-6e"/>
      <use x="448.339844" xlink:href="#DejaVuSans-20"/>
      <use x="480.126953" xlink:href="#DejaVuSans-42"/>
      <use x="548.730469" xlink:href="#DejaVuSans-61"/>
      <use x="610.009766" xlink:href="#DejaVuSans-73"/>
      <use x="662.109375" xlink:href="#DejaVuSans-6b"/>
      <use x="716.394531" xlink:href="#DejaVuSans-65"/>
      <use x="777.917969" xlink:href="#DejaVuSans-74"/>
      <use x="817.126953" xlink:href="#DejaVuSans-62"/>
      <use x="880.603516" xlink:href="#DejaVuSans-61"/>
      <use x="941.882812" xlink:href="#DejaVuSans-6c"/>
      <use x="969.666016" xlink:href="#DejaVuSans-6c"/>
     </g>
    </g>
    <g id="line2d_25">
     <path d="M 845.356562 108.007188 
L 873.356562 108.007188 
" style="fill:none;stroke:#ff7f0e;stroke-linecap:square;stroke-width:3;"/>
    </g>
    <g id="line2d_26"/>
    <g id="text_23">
     <!-- Michigan Hockey -->
     <g transform="translate(884.556563 112.907188)scale(0.14 -0.14)">
      <defs>
       <path d="M 628 4666 
L 1259 4666 
L 1259 2753 
L 3553 2753 
L 3553 4666 
L 4184 4666 
L 4184 0 
L 3553 0 
L 3553 2222 
L 1259 2222 
L 1259 0 
L 628 0 
L 628 4666 
z
" id="DejaVuSans-48" transform="scale(0.015625)"/>
       <path d="M 2059 -325 
Q 1816 -950 1584 -1140 
Q 1353 -1331 966 -1331 
L 506 -1331 
L 506 -850 
L 844 -850 
Q 1081 -850 1212 -737 
Q 1344 -625 1503 -206 
L 1606 56 
L 191 3500 
L 800 3500 
L 1894 763 
L 2988 3500 
L 3597 3500 
L 2059 -325 
z
" id="DejaVuSans-79" transform="scale(0.015625)"/>
      </defs>
      <use xlink:href="#DejaVuSans-4d"/>
      <use x="86.279297" xlink:href="#DejaVuSans-69"/>
      <use x="114.0625" xlink:href="#DejaVuSans-63"/>
      <use x="169.042969" xlink:href="#DejaVuSans-68"/>
      <use x="232.421875" xlink:href="#DejaVuSans-69"/>
      <use x="260.205078" xlink:href="#DejaVuSans-67"/>
      <use x="323.681641" xlink:href="#DejaVuSans-61"/>
      <use x="384.960938" xlink:href="#DejaVuSans-6e"/>
      <use x="448.339844" xlink:href="#DejaVuSans-20"/>
      <use x="480.126953" xlink:href="#DejaVuSans-48"/>
      <use x="555.322266" xlink:href="#DejaVuSans-6f"/>
      <use x="616.503906" xlink:href="#DejaVuSans-63"/>
      <use x="671.484375" xlink:href="#DejaVuSans-6b"/>
      <use x="725.769531" xlink:href="#DejaVuSans-65"/>
      <use x="787.292969" xlink:href="#DejaVuSans-79"/>
     </g>
    </g>
    <g id="line2d_27">
     <path d="M 845.356562 128.556563 
L 873.356562 128.556563 
" style="fill:none;stroke:#2ca02c;stroke-linecap:square;stroke-width:3;"/>
    </g>
    <g id="line2d_28"/>
    <g id="text_24">
     <!-- Michigan Football -->
     <g transform="translate(884.556563 133.456563)scale(0.14 -0.14)">
      <defs>
       <path d="M 628 4666 
L 3309 4666 
L 3309 4134 
L 1259 4134 
L 1259 2759 
L 3109 2759 
L 3109 2228 
L 1259 2228 
L 1259 0 
L 628 0 
L 628 4666 
z
" id="DejaVuSans-46" transform="scale(0.015625)"/>
      </defs>
      <use xlink:href="#DejaVuSans-4d"/>
      <use x="86.279297" xlink:href="#DejaVuSans-69"/>
      <use x="114.0625" xlink:href="#DejaVuSans-63"/>
      <use x="169.042969" xlink:href="#DejaVuSans-68"/>
      <use x="232.421875" xlink:href="#DejaVuSans-69"/>
      <use x="260.205078" xlink:href="#DejaVuSans-67"/>
      <use x="323.681641" xlink:href="#DejaVuSans-61"/>
      <use x="384.960938" xlink:href="#DejaVuSans-6e"/>
      <use x="448.339844" xlink:href="#DejaVuSans-20"/>
      <use x="480.126953" xlink:href="#DejaVuSans-46"/>
      <use x="534.021484" xlink:href="#DejaVuSans-6f"/>
      <use x="595.203125" xlink:href="#DejaVuSans-6f"/>
      <use x="656.384766" xlink:href="#DejaVuSans-74"/>
      <use x="695.59375" xlink:href="#DejaVuSans-62"/>
      <use x="759.070312" xlink:href="#DejaVuSans-61"/>
      <use x="820.349609" xlink:href="#DejaVuSans-6c"/>
      <use x="848.132812" xlink:href="#DejaVuSans-6c"/>
     </g>
    </g>
    <g id="line2d_29">
     <path d="M 845.356562 149.105938 
L 873.356562 149.105938 
" style="fill:none;stroke:#d62728;stroke-linecap:square;stroke-width:3;"/>
    </g>
    <g id="line2d_30"/>
    <g id="text_25">
     <!-- Michigan Soccer -->
     <g transform="translate(884.556563 154.005938)scale(0.14 -0.14)">
      <use xlink:href="#DejaVuSans-4d"/>
      <use x="86.279297" xlink:href="#DejaVuSans-69"/>
      <use x="114.0625" xlink:href="#DejaVuSans-63"/>
      <use x="169.042969" xlink:href="#DejaVuSans-68"/>
      <use x="232.421875" xlink:href="#DejaVuSans-69"/>
      <use x="260.205078" xlink:href="#DejaVuSans-67"/>
      <use x="323.681641" xlink:href="#DejaVuSans-61"/>
      <use x="384.960938" xlink:href="#DejaVuSans-6e"/>
      <use x="448.339844" xlink:href="#DejaVuSans-20"/>
      <use x="480.126953" xlink:href="#DejaVuSans-53"/>
      <use x="543.603516" xlink:href="#DejaVuSans-6f"/>
      <use x="604.785156" xlink:href="#DejaVuSans-63"/>
      <use x="659.765625" xlink:href="#DejaVuSans-63"/>
      <use x="714.746094" xlink:href="#DejaVuSans-65"/>
      <use x="776.269531" xlink:href="#DejaVuSans-72"/>
     </g>
    </g>
   </g>
  </g>
 </g>
 <defs>
  <clipPath id="pbae079fee8">
   <rect height="434.88" width="892.8" x="144" y="69.12"/>
  </clipPath>
 </defs>
</svg>
